{"title":"Once Upon A Time In Mumbaai Again (2013) Hindi SCAM MPEG - Exclu","uid":8815614,"size":785907746,"categoryP":"video","categoryS":"movies","magnet":"?xt=urn:btih:c4f2a3f59774c49a6acaebdf0954ff54295f1498&amp;dn=Once+Upon+A+Time+In+Mumbaai+Again+%282013%29+Hindi+SCAM+MPEG+-+Exclu&amp;tr=udp%3A%2F%2Ftracker.openbittorrent.com%3A80&amp;tr=udp%3A%2F%2Fopen.demonii.com%3A1337&amp;tr=udp%3A%2F%2Ftracker.coppersurfer.tk%3A6969&amp;tr=udp%3A%2F%2Fexodus.desync.com%3A6969","seeders":2,"leechers":0,"uploader":"tykoon123","files":-1,"time":1376573391,"description":" &lt;a href=&quot;http://bollyspice.com/wp-content/uploads/2013/05/ouatimaposter.jpeg&quot; rel=&quot;nofollow&quot; target=&quot;_NEW&quot;&gt;http://bollyspice.com/wp-content/uploads/2013/05/ouatimaposter.jpeg&lt;/a&gt;\n\nInfo:\n\nFormat : MPEG-PS\nFile size : 749 MiB\nDuration : 2h 10mn\nOverall bit rate : 800 Kbps\n\nVideo\nID : 224 (0xE0)\nFormat : MPEG Video\nFormat version : Version 2\nFormat settings, BVOP : Yes\nFormat settings, Matrix : Custom\nFormat settings, GOP : Variable\nDuration : 2h 10mn\nBit rate : 720 Kbps\nMaximum bit rate : 1 150 Kbps\nWidth : 352 pixels\nHeight : 288 pixels\nDisplay aspect ratio : 1.222\nFrame rate : 25.000 fps\nStandard : PAL\nColor space : YUV\nChroma subsampling : 4:2:0\nBit depth : 8 bits\nScan type : Progressive\nCompression mode : Lossy\nBits/(Pixel*Frame) : 0.284\nTime code of first frame : 00:00:00:00\nTime code source : Group of pictures header\nStream size : 674 MiB (90%)\n\nAudio\nID : 192 (0xC0)\nFormat : MPEG Audio\nFormat version : Version 1\nFormat profile : Layer 2\nDuration : 2h 10mn\nBit rate mode : Constant\nBit rate : 64.0 Kbps\nChannel(s) : 2 channels\nSampling rate : 48.0 KHz\nCompression mode : Lossy\nStream size : 59.9 MiB (8%)\n\nScreens: &lt;a href=&quot;\nhttp://1337x.org/torrent/607252/Once-Upon-A-Time-In-Mumbaai-Again-2013-Hindi-SCAM-MPEG-Exclusive/&quot; rel=&quot;nofollow&quot; target=&quot;_NEW&quot;&gt;\nhttp://1337x.org/torrent/607252/Once-Upon-A-Time-In-Mumbaai-Again-2013-Hindi-SCAM-MPEG-Exclusive/&lt;/a&gt;","torrent":{"xt":"urn:btih:c4f2a3f59774c49a6acaebdf0954ff54295f1498","amp;dn":"Once+Upon+A+Time+In+Mumbaai+Again+%282013%29+Hindi+SCAM+MPEG+-+Exclu","amp;tr":["udp%3A%2F%2Ftracker.openbittorrent.com%3A80","udp%3A%2F%2Fopen.demonii.com%3A1337","udp%3A%2F%2Ftracker.coppersurfer.tk%3A6969","udp%3A%2F%2Fexodus.desync.com%3A6969"],"infoHash":"c4f2a3f59774c49a6acaebdf0954ff54295f1498","infoHashBuffer":{"type":"Buffer","data":[196,242,163,245,151,116,196,154,106,202,235,223,9,84,255,84,41,95,20,152]},"announce":[],"urlList":[]}}